# xmcd
#
# Track frame offsets:
#	150
#	13562
#	29377
#	43265
#	56137
#	78812
#	92760
#	106475
#	123410
#	137522
#	146372
#	162427
#	177710
#	192195
#	211575
#
# Disc length: 3058 seconds
#
# Revision: 0
# Processed by: cddbd v1.5.2PL0 Copyright (c) Steve Scherf et al.
# Submitted via: EasyCDDAExtractor 10.0.6.1
#
DISCID=cb0bf00f
DTITLE=Various Artist - Skyline Sampler
DYEAR=1900
DGENRE=Gospel
TTITLE0=Southern Cross - That Heaven Could Be So Real
TTITLE1=The Gospel Echoes - He Paid The Price
TTITLE2=The Rainbow Quartet - Things Are Looking Up
TTITLE3=Uplifted - It's The Blood That Makes The Differeence
TTITLE4=The McFalls - I Still Trust You
TTITLE5=The Legends - Born To Royalty
TTITLE6=Rev. Danny Lanier - Unfailing Love
TTITLE7=The Bibletones - Mama's Rose Garden
TTITLE8=Leroy Stuart - When Jesus Comes To Claim His Own
TTITLE9=The Ridgeways - A Good Ole Gospel Song
TTITLE10=The Disciples Quartet - Headed Home
TTITLE11=The Gulf City Boys - It Took A Lot Of Love
TTITLE12=Dr. Jim Matthews - Touching Hands and Touching Hearts
TTITLE13=Beulahland Quartet - A City Not Built With Hands
TTITLE14=Terry and Kim Kelly - Captain Of My Salvation
EXTD=
EXTT0=
EXTT1=
EXTT2=
EXTT3=
EXTT4=
EXTT5=
EXTT6=
EXTT7=
EXTT8=
EXTT9=
EXTT10=
EXTT11=
EXTT12=
EXTT13=
EXTT14=
PLAYORDER=
